<svg width="200" height="200" viewBox="0 0 200 200" fill="none" xmlns="http://www.w3.org/2000/svg">
<rect width="200" height="200" fill="black"/>
<path fill-rule="evenodd" clip-rule="evenodd" d="M150.12 35.5761C147.606 34.8978 144.991 34.54 142.307 34.54C122.631 34.54 106.68 53.7738 106.68 77.5C106.68 101.226 122.631 120.46 142.307 120.46C144.991 120.46 147.606 120.102 150.12 119.424C146.072 121.251 141.689 122.25 137.112 122.25C116.615 122.25 100 102.215 100 77.5C100 52.7853 116.615 32.75 137.112 32.75C141.689 32.75 146.072 33.749 150.12 35.5761Z" fill="white"/>
<path fill-rule="evenodd" clip-rule="evenodd" d="M49.88 122.246C77.6045 122.018 100 102.071 100 77.498C100 52.9249 77.6045 32.9778 49.88 32.75V122.246Z" fill="white"/>
<path fill-rule="evenodd" clip-rule="evenodd" d="M60.8305 99.875C60.8368 99.875 60.8431 99.875 60.8495 99.875C60.8558 99.875 60.8622 99.875 60.8685 99.875H60.8305ZM61.0656 99.874C73.5454 99.7601 83.6263 89.7863 83.6263 77.4995C83.6263 65.2127 73.5454 55.2389 61.0656 55.125V99.874Z" fill="black"/>
<path d="M35.1901 147.25V132.214H42.6007C44.2762 132.214 45.7511 132.522 47.0256 133.138C48.3001 133.739 49.2953 134.598 50.0113 135.715C50.7273 136.832 51.0853 138.164 51.0853 139.711C51.0853 141.271 50.7273 142.617 50.0113 143.749C49.2953 144.866 48.3001 145.732 47.0256 146.348C45.7511 146.949 44.2762 147.25 42.6007 147.25H35.1901ZM40.2594 143.298H42.3859C43.1019 143.298 43.7249 143.162 44.2547 142.89C44.7989 142.617 45.2213 142.217 45.522 141.687C45.8227 141.143 45.9731 140.484 45.9731 139.711C45.9731 138.952 45.8227 138.307 45.522 137.777C45.2213 137.247 44.7989 136.847 44.2547 136.574C43.7249 136.302 43.1019 136.166 42.3859 136.166H40.2594V143.298ZM58.8648 147.4C57.5903 147.4 56.4734 147.15 55.5139 146.649C54.5688 146.133 53.8313 145.431 53.3015 144.544C52.786 143.656 52.5282 142.646 52.5282 141.515C52.5282 140.369 52.7788 139.36 53.28 138.486C53.7955 137.598 54.4972 136.904 55.385 136.403C56.2872 135.901 57.3111 135.651 58.4567 135.651C59.5736 135.651 60.5689 135.894 61.4424 136.381C62.3159 136.868 63.0033 137.555 63.5045 138.443C64.0057 139.331 64.2563 140.376 64.2563 141.579C64.2563 141.694 64.2491 141.823 64.2348 141.966C64.2348 142.109 64.2276 142.245 64.2133 142.374H54.6547V140.591H62.7956L61.7431 141.15C61.7574 140.491 61.6214 139.911 61.335 139.41C61.0486 138.909 60.6548 138.515 60.1536 138.228C59.6667 137.942 59.1011 137.799 58.4567 137.799C57.798 137.799 57.218 137.942 56.7168 138.228C56.2299 138.515 55.8433 138.916 55.5569 139.431C55.2848 139.932 55.1488 140.527 55.1488 141.214V141.644C55.1488 142.331 55.3063 142.94 55.6213 143.47C55.9364 143.999 56.3803 144.407 56.9531 144.694C57.5259 144.98 58.1846 145.123 58.9292 145.123C59.5736 145.123 60.1536 145.023 60.6691 144.823C61.1846 144.622 61.6429 144.307 62.0438 143.878L63.483 145.532C62.9675 146.133 62.3159 146.598 61.5283 146.928C60.755 147.243 59.8672 147.4 58.8648 147.4ZM69.6758 147.25L64.7569 135.78H67.5493L71.7808 145.897H70.4061L74.788 135.78H77.3656L72.4467 147.25H69.6758ZM86.2825 147.594C85.0796 147.594 83.9627 147.408 82.9316 147.035C81.9149 146.649 81.0271 146.104 80.2681 145.403C79.5235 144.701 78.9435 143.87 78.5282 142.911C78.1129 141.952 77.9053 140.892 77.9053 139.732C77.9053 138.572 78.1129 137.512 78.5282 136.553C78.9435 135.594 79.5235 134.763 80.2681 134.061C81.0271 133.36 81.9149 132.823 82.9316 132.45C83.9627 132.064 85.0796 131.87 86.2825 131.87C87.7575 131.87 89.0606 132.128 90.1919 132.644C91.3375 133.159 92.2826 133.904 93.0272 134.878L89.8267 137.734C89.3828 137.176 88.8887 136.746 88.3446 136.446C87.8147 136.131 87.2133 135.973 86.5403 135.973C86.0104 135.973 85.5307 136.059 85.1011 136.231C84.6715 136.403 84.2992 136.653 83.9841 136.983C83.6834 137.312 83.4471 137.713 83.2753 138.185C83.1035 138.644 83.0175 139.159 83.0175 139.732C83.0175 140.305 83.1035 140.827 83.2753 141.3C83.4471 141.758 83.6834 142.152 83.9841 142.481C84.2992 142.811 84.6715 143.061 85.1011 143.233C85.5307 143.405 86.0104 143.491 86.5403 143.491C87.2133 143.491 87.8147 143.341 88.3446 143.04C88.8887 142.725 89.3828 142.288 89.8267 141.73L93.0272 144.586C92.2826 145.546 91.3375 146.291 90.1919 146.82C89.0606 147.336 87.7575 147.594 86.2825 147.594ZM102.095 147.25V144.93L101.944 144.436V140.376C101.944 139.589 101.708 138.98 101.236 138.551C100.763 138.107 100.047 137.885 99.0876 137.885C98.4432 137.885 97.806 137.985 97.1759 138.185C96.5601 138.386 96.0374 138.665 95.6078 139.023L94.5553 137.068C95.1711 136.596 95.9014 136.245 96.7463 136.016C97.6055 135.773 98.4933 135.651 99.4098 135.651C101.071 135.651 102.353 136.052 103.255 136.854C104.171 137.641 104.629 138.866 104.629 140.527V147.25H102.095ZM98.4862 147.4C97.627 147.4 96.8752 147.257 96.2308 146.971C95.5864 146.67 95.0852 146.262 94.7272 145.746C94.3835 145.217 94.2116 144.622 94.2116 143.964C94.2116 143.319 94.362 142.739 94.6627 142.224C94.9778 141.708 95.4861 141.3 96.1878 140.999C96.8895 140.699 97.8203 140.548 98.9802 140.548H102.31V142.331H99.1735C98.257 142.331 97.6413 142.481 97.3262 142.782C97.0112 143.069 96.8537 143.427 96.8537 143.856C96.8537 144.343 97.047 144.73 97.4336 145.016C97.8203 145.302 98.3573 145.446 99.0446 145.446C99.7034 145.446 100.29 145.295 100.806 144.995C101.336 144.694 101.715 144.25 101.944 143.663L102.396 145.274C102.138 145.947 101.672 146.47 100.999 146.842C100.341 147.214 99.5029 147.4 98.4862 147.4ZM122.553 135.651C123.469 135.651 124.278 135.83 124.98 136.188C125.696 136.546 126.255 137.097 126.656 137.842C127.056 138.572 127.257 139.517 127.257 140.677V147.25H124.572V141.021C124.572 140.004 124.35 139.245 123.906 138.744C123.462 138.243 122.825 137.992 121.994 137.992C121.407 137.992 120.885 138.121 120.426 138.379C119.982 138.637 119.632 139.016 119.374 139.517C119.13 140.018 119.009 140.656 119.009 141.429V147.25H116.324V141.021C116.324 140.004 116.102 139.245 115.658 138.744C115.214 138.243 114.577 137.992 113.746 137.992C113.159 137.992 112.636 138.121 112.178 138.379C111.734 138.637 111.383 139.016 111.125 139.517C110.882 140.018 110.76 140.656 110.76 141.429V147.25H108.075V135.78H110.631V138.83L110.18 137.928C110.567 137.183 111.125 136.617 111.856 136.231C112.6 135.844 113.445 135.651 114.39 135.651C115.464 135.651 116.395 135.916 117.183 136.446C117.985 136.975 118.515 137.777 118.772 138.851L117.72 138.486C118.092 137.627 118.708 136.94 119.567 136.424C120.426 135.909 121.422 135.651 122.553 135.651ZM137.046 147.4C136.115 147.4 135.263 147.186 134.49 146.756C133.731 146.326 133.122 145.682 132.664 144.823C132.22 143.949 131.998 142.847 131.998 141.515C131.998 140.169 132.213 139.066 132.643 138.207C133.087 137.348 133.688 136.71 134.447 136.295C135.206 135.866 136.072 135.651 137.046 135.651C138.177 135.651 139.173 135.894 140.032 136.381C140.905 136.868 141.593 137.548 142.094 138.422C142.609 139.295 142.867 140.326 142.867 141.515C142.867 142.703 142.609 143.742 142.094 144.629C141.593 145.503 140.905 146.183 140.032 146.67C139.173 147.157 138.177 147.4 137.046 147.4ZM130.688 151.417V135.78H133.244V138.486L133.158 141.536L133.373 144.586V151.417H130.688ZM136.745 145.102C137.39 145.102 137.963 144.959 138.464 144.672C138.979 144.386 139.387 143.971 139.688 143.427C139.989 142.882 140.139 142.245 140.139 141.515C140.139 140.77 139.989 140.133 139.688 139.603C139.387 139.059 138.979 138.644 138.464 138.357C137.963 138.071 137.39 137.928 136.745 137.928C136.101 137.928 135.521 138.071 135.006 138.357C134.49 138.644 134.082 139.059 133.781 139.603C133.48 140.133 133.33 140.77 133.33 141.515C133.33 142.245 133.48 142.882 133.781 143.427C134.082 143.971 134.49 144.386 135.006 144.672C135.521 144.959 136.101 145.102 136.745 145.102ZM150.805 147.4C149.531 147.4 148.414 147.15 147.454 146.649C146.509 146.133 145.772 145.431 145.242 144.544C144.726 143.656 144.468 142.646 144.468 141.515C144.468 140.369 144.719 139.36 145.22 138.486C145.736 137.598 146.437 136.904 147.325 136.403C148.227 135.901 149.251 135.651 150.397 135.651C151.514 135.651 152.509 135.894 153.383 136.381C154.256 136.868 154.944 137.555 155.445 138.443C155.946 139.331 156.197 140.376 156.197 141.579C156.197 141.694 156.189 141.823 156.175 141.966C156.175 142.109 156.168 142.245 156.154 142.374H146.595V140.591H154.736L153.683 141.15C153.698 140.491 153.562 139.911 153.275 139.41C152.989 138.909 152.595 138.515 152.094 138.228C151.607 137.942 151.041 137.799 150.397 137.799C149.738 137.799 149.158 137.942 148.657 138.228C148.17 138.515 147.784 138.916 147.497 139.431C147.225 139.932 147.089 140.527 147.089 141.214V141.644C147.089 142.331 147.247 142.94 147.562 143.47C147.877 143.999 148.321 144.407 148.893 144.694C149.466 144.98 150.125 145.123 150.87 145.123C151.514 145.123 152.094 145.023 152.609 144.823C153.125 144.622 153.583 144.307 153.984 143.878L155.423 145.532C154.908 146.133 154.256 146.598 153.469 146.928C152.695 147.243 151.807 147.4 150.805 147.4ZM158.776 147.25V135.78H161.332V138.937L161.031 138.014C161.375 137.24 161.912 136.653 162.642 136.252C163.387 135.851 164.31 135.651 165.413 135.651V138.207C165.298 138.178 165.191 138.164 165.091 138.164C164.991 138.15 164.89 138.142 164.79 138.142C163.773 138.142 162.964 138.443 162.363 139.045C161.761 139.632 161.461 140.512 161.461 141.687V147.25H158.776Z" fill="white"/>
<path d="M33.9658 149.935H51.712V151.009H33.9658V149.935Z" fill="white"/>
<path d="M38.6423 165.295C38.2008 165.295 37.8607 165.175 37.622 164.937C37.3834 164.698 37.264 164.361 37.264 163.925V159.513H37.8995V163.89C37.8995 164.164 37.9681 164.376 38.1053 164.525C38.2485 164.674 38.4514 164.749 38.7139 164.749C38.9944 164.749 39.2271 164.668 39.412 164.507L39.6358 164.964C39.5105 165.077 39.3583 165.16 39.1793 165.214C39.0063 165.268 38.8273 165.295 38.6423 165.295ZM36.4227 161.079V160.551H39.3315V161.079H36.4227ZM43.1912 160.506C43.573 160.506 43.9072 160.581 44.1936 160.73C44.4859 160.873 44.7127 161.094 44.8738 161.393C45.0408 161.691 45.1244 162.067 45.1244 162.52V165.25H44.4889V162.583C44.4889 162.088 44.3636 161.715 44.113 161.464C43.8684 161.208 43.5223 161.079 43.0748 161.079C42.7407 161.079 42.4483 161.148 42.1977 161.285C41.9531 161.416 41.7622 161.61 41.6249 161.867C41.4937 162.117 41.428 162.422 41.428 162.78V165.25H40.7926V158.609H41.428V161.84L41.3027 161.598C41.4519 161.258 41.6906 160.993 42.0187 160.802C42.3469 160.605 42.7377 160.506 43.1912 160.506ZM48.8367 165.295C48.3474 165.295 47.9178 165.193 47.5479 164.99C47.1779 164.782 46.8885 164.498 46.6797 164.14C46.4709 163.776 46.3665 163.362 46.3665 162.896C46.3665 162.431 46.4649 162.019 46.6618 161.661C46.8647 161.303 47.1391 161.023 47.4852 160.82C47.8372 160.611 48.231 160.506 48.6666 160.506C49.1081 160.506 49.499 160.608 49.8391 160.811C50.1851 161.008 50.4566 161.288 50.6535 161.652C50.8504 162.01 50.9489 162.425 50.9489 162.896C50.9489 162.926 50.9459 162.959 50.9399 162.995C50.9399 163.024 50.9399 163.057 50.9399 163.093H46.8498V162.619H50.5998L50.3492 162.807C50.3492 162.467 50.2746 162.165 50.1255 161.903C49.9823 161.634 49.7854 161.425 49.5348 161.276C49.2842 161.127 48.9948 161.052 48.6666 161.052C48.3444 161.052 48.055 161.127 47.7985 161.276C47.5419 161.425 47.342 161.634 47.1988 161.903C47.0556 162.171 46.984 162.478 46.984 162.825V162.923C46.984 163.281 47.0616 163.597 47.2167 163.872C47.3778 164.14 47.5986 164.352 47.879 164.507C48.1654 164.656 48.4906 164.731 48.8546 164.731C49.141 164.731 49.4065 164.68 49.6511 164.579C49.9017 164.477 50.1165 164.322 50.2955 164.113L50.6535 164.525C50.4447 164.776 50.1821 164.967 49.8659 165.098C49.5556 165.229 49.2126 165.295 48.8367 165.295ZM57.0101 165.295C56.6044 165.295 56.2374 165.202 55.9093 165.017C55.5811 164.826 55.3186 164.555 55.1217 164.203C54.9307 163.845 54.8353 163.409 54.8353 162.896C54.8353 162.383 54.9307 161.95 55.1217 161.598C55.3126 161.24 55.5721 160.969 55.9003 160.784C56.2285 160.599 56.5984 160.506 57.0101 160.506C57.4576 160.506 57.8574 160.608 58.2094 160.811C58.5674 161.008 58.8478 161.288 59.0507 161.652C59.2536 162.01 59.355 162.425 59.355 162.896C59.355 163.373 59.2536 163.791 59.0507 164.149C58.8478 164.507 58.5674 164.788 58.2094 164.99C57.8574 165.193 57.4576 165.295 57.0101 165.295ZM54.5847 166.986V160.551H55.1933V161.965L55.1306 162.905L55.2201 163.854V166.986H54.5847ZM56.9654 164.731C57.2995 164.731 57.5978 164.656 57.8604 164.507C58.1229 164.352 58.3317 164.137 58.4869 163.863C58.642 163.582 58.7196 163.26 58.7196 162.896C58.7196 162.532 58.642 162.213 58.4869 161.939C58.3317 161.664 58.1229 161.449 57.8604 161.294C57.5978 161.139 57.2995 161.061 56.9654 161.061C56.6312 161.061 56.3299 161.139 56.0614 161.294C55.7989 161.449 55.59 161.664 55.4349 161.939C55.2857 162.213 55.2112 162.532 55.2112 162.896C55.2112 163.26 55.2857 163.582 55.4349 163.863C55.59 164.137 55.7989 164.352 56.0614 164.507C56.3299 164.656 56.6312 164.731 56.9654 164.731ZM62.6462 165.295C62.157 165.295 61.7274 165.193 61.3574 164.99C60.9875 164.782 60.6981 164.498 60.4893 164.14C60.2804 163.776 60.176 163.362 60.176 162.896C60.176 162.431 60.2745 162.019 60.4714 161.661C60.6742 161.303 60.9487 161.023 61.2948 160.82C61.6468 160.611 62.0406 160.506 62.4762 160.506C62.9177 160.506 63.3085 160.608 63.6486 160.811C63.9947 161.008 64.2662 161.288 64.4631 161.652C64.66 162.01 64.7584 162.425 64.7584 162.896C64.7584 162.926 64.7554 162.959 64.7495 162.995C64.7495 163.024 64.7495 163.057 64.7495 163.093H60.6593V162.619H64.4094L64.1588 162.807C64.1588 162.467 64.0842 162.165 63.935 161.903C63.7918 161.634 63.5949 161.425 63.3443 161.276C63.0937 161.127 62.8043 161.052 62.4762 161.052C62.154 161.052 61.8646 161.127 61.608 161.276C61.3515 161.425 61.1516 161.634 61.0084 161.903C60.8652 162.171 60.7936 162.478 60.7936 162.825V162.923C60.7936 163.281 60.8711 163.597 61.0263 163.872C61.1874 164.14 61.4081 164.352 61.6886 164.507C61.975 164.656 62.3002 164.731 62.6641 164.731C62.9505 164.731 63.216 164.68 63.4607 164.579C63.7113 164.477 63.9261 164.322 64.1051 164.113L64.4631 164.525C64.2542 164.776 63.9917 164.967 63.6755 165.098C63.3652 165.229 63.0221 165.295 62.6462 165.295ZM66.0518 165.25V160.551H66.6604V161.831L66.5978 161.607C66.7291 161.249 66.9498 160.978 67.2601 160.793C67.5704 160.602 67.9552 160.506 68.4146 160.506V161.124C68.3908 161.124 68.3669 161.124 68.343 161.124C68.3192 161.118 68.2953 161.115 68.2714 161.115C67.7762 161.115 67.3884 161.267 67.1079 161.572C66.8275 161.87 66.6873 162.296 66.6873 162.851V165.25H66.0518ZM69.7515 165.25V159.961C69.7515 159.543 69.8738 159.206 70.1184 158.949C70.3631 158.693 70.7151 158.564 71.1745 158.564C71.3535 158.564 71.5266 158.588 71.6936 158.636C71.8607 158.684 72.0009 158.758 72.1143 158.86L71.8995 159.334C71.81 159.256 71.7056 159.2 71.5862 159.164C71.4669 159.122 71.3386 159.101 71.2014 159.101C70.9329 159.101 70.727 159.176 70.5838 159.325C70.4406 159.474 70.369 159.695 70.369 159.987V160.703L70.3869 160.999V165.25H69.7515ZM68.9102 161.079V160.551H71.8189V161.079H68.9102ZM74.5941 165.295C74.1049 165.295 73.6753 165.193 73.3053 164.99C72.9354 164.782 72.646 164.498 72.4372 164.14C72.2283 163.776 72.1239 163.362 72.1239 162.896C72.1239 162.431 72.2224 162.019 72.4193 161.661C72.6221 161.303 72.8966 161.023 73.2427 160.82C73.5947 160.611 73.9885 160.506 74.4241 160.506C74.8656 160.506 75.2564 160.608 75.5965 160.811C75.9426 161.008 76.2141 161.288 76.411 161.652C76.6079 162.01 76.7063 162.425 76.7063 162.896C76.7063 162.926 76.7033 162.959 76.6974 162.995C76.6974 163.024 76.6974 163.057 76.6974 163.093H72.6072V162.619H76.3573L76.1067 162.807C76.1067 162.467 76.0321 162.165 75.8829 161.903C75.7397 161.634 75.5428 161.425 75.2922 161.276C75.0416 161.127 74.7522 161.052 74.4241 161.052C74.1019 161.052 73.8125 161.127 73.5559 161.276C73.2994 161.425 73.0995 161.634 72.9563 161.903C72.8131 162.171 72.7415 162.478 72.7415 162.825V162.923C72.7415 163.281 72.819 163.597 72.9742 163.872C73.1353 164.14 73.356 164.352 73.6365 164.507C73.9229 164.656 74.2481 164.731 74.612 164.731C74.8984 164.731 75.1639 164.68 75.4086 164.579C75.6592 164.477 75.874 164.322 76.053 164.113L76.411 164.525C76.2021 164.776 75.9396 164.967 75.6234 165.098C75.3131 165.229 74.97 165.295 74.5941 165.295ZM79.9508 165.295C79.4854 165.295 79.0678 165.193 78.6978 164.99C78.3339 164.782 78.0475 164.498 77.8386 164.14C77.6298 163.776 77.5254 163.362 77.5254 162.896C77.5254 162.425 77.6298 162.01 77.8386 161.652C78.0475 161.294 78.3339 161.014 78.6978 160.811C79.0678 160.608 79.4854 160.506 79.9508 160.506C80.3506 160.506 80.7116 160.584 81.0338 160.739C81.356 160.894 81.6096 161.127 81.7945 161.437L81.3202 161.759C81.1591 161.521 80.9592 161.345 80.7205 161.231C80.4819 161.118 80.2223 161.061 79.9419 161.061C79.6078 161.061 79.3064 161.139 79.0379 161.294C78.7694 161.443 78.5576 161.655 78.4025 161.93C78.2474 162.204 78.1698 162.526 78.1698 162.896C78.1698 163.266 78.2474 163.588 78.4025 163.863C78.5576 164.137 78.7694 164.352 79.0379 164.507C79.3064 164.656 79.6078 164.731 79.9419 164.731C80.2223 164.731 80.4819 164.674 80.7205 164.561C80.9592 164.447 81.1591 164.274 81.3202 164.042L81.7945 164.364C81.6096 164.668 81.356 164.901 81.0338 165.062C80.7116 165.217 80.3506 165.295 79.9508 165.295ZM84.581 165.295C84.1395 165.295 83.7994 165.175 83.5607 164.937C83.322 164.698 83.2027 164.361 83.2027 163.925V159.513H83.8382V163.89C83.8382 164.164 83.9068 164.376 84.044 164.525C84.1872 164.674 84.3901 164.749 84.6526 164.749C84.933 164.749 85.1657 164.668 85.3507 164.507L85.5745 164.964C85.4492 165.077 85.297 165.16 85.118 165.214C84.945 165.268 84.766 165.295 84.581 165.295ZM82.3614 161.079V160.551H85.2702V161.079H82.3614ZM91.4991 165.295C91.0874 165.295 90.7174 165.202 90.3893 165.017C90.0611 164.826 89.8016 164.552 89.6106 164.194C89.4197 163.836 89.3242 163.403 89.3242 162.896C89.3242 162.383 89.4197 161.95 89.6106 161.598C89.8075 161.24 90.0701 160.969 90.3982 160.784C90.7264 160.599 91.0933 160.506 91.4991 160.506C91.9466 160.506 92.3463 160.608 92.6984 160.811C93.0564 161.008 93.3368 161.285 93.5397 161.643C93.7425 162.001 93.844 162.419 93.844 162.896C93.844 163.368 93.7425 163.785 93.5397 164.149C93.3368 164.507 93.0564 164.788 92.6984 164.99C92.3463 165.193 91.9466 165.295 91.4991 165.295ZM89.0736 165.25V158.609H89.7091V161.939L89.6196 162.887L89.6822 163.836V165.25H89.0736ZM91.4543 164.731C91.7885 164.731 92.0868 164.656 92.3493 164.507C92.6119 164.352 92.8207 164.137 92.9758 163.863C93.131 163.582 93.2085 163.26 93.2085 162.896C93.2085 162.526 93.131 162.204 92.9758 161.93C92.8207 161.655 92.6119 161.443 92.3493 161.294C92.0868 161.139 91.7885 161.061 91.4543 161.061C91.1202 161.061 90.8189 161.139 90.5504 161.294C90.2878 161.443 90.079 161.655 89.9239 161.93C89.7747 162.204 89.7001 162.526 89.7001 162.896C89.7001 163.26 89.7747 163.582 89.9239 163.863C90.079 164.137 90.2878 164.352 90.5504 164.507C90.8189 164.656 91.1202 164.731 91.4543 164.731ZM97.0546 165.295C96.6012 165.295 96.1925 165.193 95.8285 164.99C95.4705 164.782 95.1871 164.498 94.9782 164.14C94.7694 163.776 94.665 163.362 94.665 162.896C94.665 162.425 94.7694 162.01 94.9782 161.652C95.1871 161.294 95.4705 161.014 95.8285 160.811C96.1865 160.608 96.5952 160.506 97.0546 160.506C97.52 160.506 97.9317 160.608 98.2897 160.811C98.6537 161.014 98.9371 161.294 99.14 161.652C99.3488 162.01 99.4532 162.425 99.4532 162.896C99.4532 163.362 99.3488 163.776 99.14 164.14C98.9371 164.498 98.6537 164.782 98.2897 164.99C97.9258 165.193 97.5141 165.295 97.0546 165.295ZM97.0546 164.731C97.3947 164.731 97.6961 164.656 97.9586 164.507C98.2211 164.352 98.427 164.137 98.5761 163.863C98.7313 163.582 98.8088 163.26 98.8088 162.896C98.8088 162.526 98.7313 162.204 98.5761 161.93C98.427 161.655 98.2211 161.443 97.9586 161.294C97.6961 161.139 97.3977 161.061 97.0636 161.061C96.7295 161.061 96.4311 161.139 96.1686 161.294C95.9061 161.443 95.6972 161.655 95.5421 161.93C95.387 162.204 95.3094 162.526 95.3094 162.896C95.3094 163.26 95.387 163.582 95.5421 163.863C95.6972 164.137 95.9061 164.352 96.1686 164.507C96.4311 164.656 96.7265 164.731 97.0546 164.731ZM102.666 165.295C102.212 165.295 101.804 165.193 101.44 164.99C101.082 164.782 100.798 164.498 100.589 164.14C100.381 163.776 100.276 163.362 100.276 162.896C100.276 162.425 100.381 162.01 100.589 161.652C100.798 161.294 101.082 161.014 101.44 160.811C101.798 160.608 102.206 160.506 102.666 160.506C103.131 160.506 103.543 160.608 103.901 160.811C104.265 161.014 104.548 161.294 104.751 161.652C104.96 162.01 105.064 162.425 105.064 162.896C105.064 163.362 104.96 163.776 104.751 164.14C104.548 164.498 104.265 164.782 103.901 164.99C103.537 165.193 103.125 165.295 102.666 165.295ZM102.666 164.731C103.006 164.731 103.307 164.656 103.57 164.507C103.832 164.352 104.038 164.137 104.187 163.863C104.343 163.582 104.42 163.26 104.42 162.896C104.42 162.526 104.343 162.204 104.187 161.93C104.038 161.655 103.832 161.443 103.57 161.294C103.307 161.139 103.009 161.061 102.675 161.061C102.341 161.061 102.042 161.139 101.78 161.294C101.517 161.443 101.308 161.655 101.153 161.93C100.998 162.204 100.921 162.526 100.921 162.896C100.921 163.26 100.998 163.582 101.153 163.863C101.308 164.137 101.517 164.352 101.78 164.507C102.042 164.656 102.338 164.731 102.666 164.731ZM107.848 165.295C107.406 165.295 107.066 165.175 106.827 164.937C106.589 164.698 106.469 164.361 106.469 163.925V159.513H107.105V163.89C107.105 164.164 107.173 164.376 107.311 164.525C107.454 164.674 107.657 164.749 107.919 164.749C108.2 164.749 108.432 164.668 108.617 164.507L108.841 164.964C108.716 165.077 108.564 165.16 108.385 165.214C108.211 165.268 108.032 165.295 107.848 165.295ZM105.628 161.079V160.551H108.537V161.079H105.628ZM111.783 165.295C111.317 165.295 110.9 165.193 110.53 164.99C110.166 164.782 109.879 164.498 109.671 164.14C109.462 163.776 109.357 163.362 109.357 162.896C109.357 162.425 109.462 162.01 109.671 161.652C109.879 161.294 110.166 161.014 110.53 160.811C110.9 160.608 111.317 160.506 111.783 160.506C112.183 160.506 112.544 160.584 112.866 160.739C113.188 160.894 113.442 161.127 113.626 161.437L113.152 161.759C112.991 161.521 112.791 161.345 112.552 161.231C112.314 161.118 112.054 161.061 111.774 161.061C111.44 161.061 111.138 161.139 110.87 161.294C110.601 161.443 110.39 161.655 110.234 161.93C110.079 162.204 110.002 162.526 110.002 162.896C110.002 163.266 110.079 163.588 110.234 163.863C110.39 164.137 110.601 164.352 110.87 164.507C111.138 164.656 111.44 164.731 111.774 164.731C112.054 164.731 112.314 164.674 112.552 164.561C112.791 164.447 112.991 164.274 113.152 164.042L113.626 164.364C113.442 164.668 113.188 164.901 112.866 165.062C112.544 165.217 112.183 165.295 111.783 165.295ZM117.819 165.25V164.212L117.792 164.042V162.305C117.792 161.906 117.679 161.598 117.452 161.384C117.232 161.169 116.9 161.061 116.459 161.061C116.155 161.061 115.865 161.112 115.591 161.214C115.316 161.315 115.084 161.449 114.893 161.616L114.606 161.142C114.845 160.939 115.131 160.784 115.465 160.677C115.8 160.563 116.152 160.506 116.522 160.506C117.13 160.506 117.599 160.659 117.927 160.963C118.261 161.261 118.428 161.718 118.428 162.332V165.25H117.819ZM116.199 165.295C115.847 165.295 115.54 165.238 115.278 165.125C115.021 165.005 114.824 164.844 114.687 164.641C114.55 164.433 114.481 164.194 114.481 163.925C114.481 163.681 114.538 163.46 114.651 163.263C114.77 163.06 114.961 162.899 115.224 162.78C115.492 162.654 115.85 162.592 116.298 162.592H117.918V163.066H116.316C115.862 163.066 115.546 163.147 115.367 163.308C115.194 163.469 115.107 163.669 115.107 163.907C115.107 164.176 115.212 164.391 115.421 164.552C115.63 164.713 115.922 164.794 116.298 164.794C116.656 164.794 116.963 164.713 117.22 164.552C117.482 164.385 117.673 164.146 117.792 163.836L117.936 164.274C117.816 164.585 117.608 164.832 117.309 165.017C117.017 165.202 116.647 165.295 116.199 165.295ZM126.025 160.506C126.407 160.506 126.738 160.581 127.019 160.73C127.305 160.873 127.526 161.094 127.681 161.393C127.842 161.691 127.922 162.067 127.922 162.52V165.25H127.287V162.583C127.287 162.088 127.168 161.715 126.929 161.464C126.696 161.208 126.365 161.079 125.936 161.079C125.613 161.079 125.333 161.148 125.094 161.285C124.862 161.416 124.68 161.61 124.548 161.867C124.423 162.117 124.36 162.422 124.36 162.78V165.25H123.725V162.583C123.725 162.088 123.606 161.715 123.367 161.464C123.128 161.208 122.794 161.079 122.365 161.079C122.048 161.079 121.771 161.148 121.532 161.285C121.294 161.416 121.109 161.61 120.977 161.867C120.852 162.117 120.789 162.422 120.789 162.78V165.25H120.154V160.551H120.762V161.822L120.664 161.598C120.807 161.258 121.037 160.993 121.353 160.802C121.675 160.605 122.054 160.506 122.49 160.506C122.949 160.506 123.34 160.623 123.662 160.856C123.984 161.082 124.193 161.425 124.289 161.885L124.038 161.786C124.175 161.404 124.417 161.097 124.763 160.865C125.115 160.626 125.536 160.506 126.025 160.506ZM132.071 165.295C131.666 165.295 131.299 165.202 130.97 165.017C130.642 164.826 130.38 164.555 130.183 164.203C129.992 163.845 129.896 163.409 129.896 162.896C129.896 162.383 129.992 161.95 130.183 161.598C130.374 161.24 130.633 160.969 130.961 160.784C131.29 160.599 131.66 160.506 132.071 160.506C132.519 160.506 132.919 160.608 133.271 160.811C133.629 161.008 133.909 161.288 134.112 161.652C134.315 162.01 134.416 162.425 134.416 162.896C134.416 163.373 134.315 163.791 134.112 164.149C133.909 164.507 133.629 164.788 133.271 164.99C132.919 165.193 132.519 165.295 132.071 165.295ZM129.646 166.986V160.551H130.254V161.965L130.192 162.905L130.281 163.854V166.986H129.646ZM132.026 164.731C132.361 164.731 132.659 164.656 132.921 164.507C133.184 164.352 133.393 164.137 133.548 163.863C133.703 163.582 133.781 163.26 133.781 162.896C133.781 162.532 133.703 162.213 133.548 161.939C133.393 161.664 133.184 161.449 132.921 161.294C132.659 161.139 132.361 161.061 132.026 161.061C131.692 161.061 131.391 161.139 131.123 161.294C130.86 161.449 130.651 161.664 130.496 161.939C130.347 162.213 130.272 162.532 130.272 162.896C130.272 163.26 130.347 163.582 130.496 163.863C130.651 164.137 130.86 164.352 131.123 164.507C131.391 164.656 131.692 164.731 132.026 164.731ZM138.161 165.25V159.961C138.161 159.543 138.284 159.206 138.528 158.949C138.773 158.693 139.125 158.564 139.584 158.564C139.763 158.564 139.936 158.588 140.103 158.636C140.271 158.684 140.411 158.758 140.524 158.86L140.309 159.334C140.22 159.256 140.115 159.2 139.996 159.164C139.877 159.122 139.748 159.101 139.611 159.101C139.343 159.101 139.137 159.176 138.994 159.325C138.85 159.474 138.779 159.695 138.779 159.987V160.703L138.797 160.999V165.25H138.161ZM137.32 161.079V160.551H140.229V161.079H137.32ZM141.088 165.25V160.551H141.723V165.25H141.088ZM141.41 159.513C141.279 159.513 141.168 159.468 141.079 159.379C140.989 159.289 140.945 159.182 140.945 159.057C140.945 158.931 140.989 158.827 141.079 158.743C141.168 158.654 141.279 158.609 141.41 158.609C141.541 158.609 141.652 158.651 141.741 158.734C141.831 158.818 141.876 158.922 141.876 159.048C141.876 159.179 141.831 159.289 141.741 159.379C141.658 159.468 141.547 159.513 141.41 159.513ZM145.906 160.506C146.288 160.506 146.622 160.581 146.909 160.73C147.201 160.873 147.428 161.094 147.589 161.393C147.756 161.691 147.84 162.067 147.84 162.52V165.25H147.204V162.583C147.204 162.088 147.079 161.715 146.828 161.464C146.584 161.208 146.238 161.079 145.79 161.079C145.456 161.079 145.164 161.148 144.913 161.285C144.668 161.416 144.477 161.61 144.34 161.867C144.209 162.117 144.143 162.422 144.143 162.78V165.25H143.508V160.551H144.116V161.84L144.018 161.598C144.167 161.258 144.406 160.993 144.734 160.802C145.062 160.605 145.453 160.506 145.906 160.506ZM151.427 165.295C150.979 165.295 150.576 165.193 150.218 164.99C149.866 164.788 149.589 164.507 149.386 164.149C149.183 163.785 149.082 163.368 149.082 162.896C149.082 162.419 149.183 162.001 149.386 161.643C149.589 161.285 149.866 161.008 150.218 160.811C150.576 160.608 150.979 160.506 151.427 160.506C151.838 160.506 152.205 160.599 152.527 160.784C152.856 160.969 153.115 161.24 153.306 161.598C153.503 161.95 153.601 162.383 153.601 162.896C153.601 163.403 153.506 163.836 153.315 164.194C153.124 164.552 152.865 164.826 152.536 165.017C152.214 165.202 151.844 165.295 151.427 165.295ZM151.471 164.731C151.805 164.731 152.104 164.656 152.366 164.507C152.635 164.352 152.844 164.137 152.993 163.863C153.148 163.582 153.226 163.26 153.226 162.896C153.226 162.526 153.148 162.204 152.993 161.93C152.844 161.655 152.635 161.443 152.366 161.294C152.104 161.139 151.805 161.061 151.471 161.061C151.143 161.061 150.848 161.139 150.585 161.294C150.323 161.443 150.114 161.655 149.959 161.93C149.804 162.204 149.726 162.526 149.726 162.896C149.726 163.26 149.804 163.582 149.959 163.863C150.114 164.137 150.323 164.352 150.585 164.507C150.848 164.656 151.143 164.731 151.471 164.731ZM153.243 165.25V163.836L153.306 162.887L153.217 161.939V158.609H153.852V165.25H153.243ZM157.618 165.295C157.128 165.295 156.699 165.193 156.329 164.99C155.959 164.782 155.67 164.498 155.461 164.14C155.252 163.776 155.147 163.362 155.147 162.896C155.147 162.431 155.246 162.019 155.443 161.661C155.646 161.303 155.92 161.023 156.266 160.82C156.618 160.611 157.012 160.506 157.448 160.506C157.889 160.506 158.28 160.608 158.62 160.811C158.966 161.008 159.238 161.288 159.434 161.652C159.631 162.01 159.73 162.425 159.73 162.896C159.73 162.926 159.727 162.959 159.721 162.995C159.721 163.024 159.721 163.057 159.721 163.093H155.631V162.619H159.381L159.13 162.807C159.13 162.467 159.056 162.165 158.906 161.903C158.763 161.634 158.566 161.425 158.316 161.276C158.065 161.127 157.776 161.052 157.448 161.052C157.125 161.052 156.836 161.127 156.579 161.276C156.323 161.425 156.123 161.634 155.98 161.903C155.837 162.171 155.765 162.478 155.765 162.825V162.923C155.765 163.281 155.843 163.597 155.998 163.872C156.159 164.14 156.38 164.352 156.66 164.507C156.946 164.656 157.272 164.731 157.636 164.731C157.922 164.731 158.187 164.68 158.432 164.579C158.683 164.477 158.897 164.322 159.076 164.113L159.434 164.525C159.226 164.776 158.963 164.967 158.647 165.098C158.337 165.229 157.994 165.295 157.618 165.295ZM161.023 165.25V160.551H161.632V161.831L161.569 161.607C161.7 161.249 161.921 160.978 162.231 160.793C162.542 160.602 162.927 160.506 163.386 160.506V161.124C163.362 161.124 163.338 161.124 163.314 161.124C163.291 161.118 163.267 161.115 163.243 161.115C162.748 161.115 162.36 161.267 162.079 161.572C161.799 161.87 161.659 162.296 161.659 162.851V165.25H161.023Z" fill="white"/>
</svg>
